<?xml version="1.0" encoding="UTF-8"?><svg xmlns="http://www.w3.org/2000/svg" xmlns:xlink="http://www.w3.org/1999/xlink" height="4156.9" preserveAspectRatio="xMidYMid meet" version="1.0" viewBox="0.0 0.0 4197.2 4156.9" width="4197.2" zoomAndPan="magnify"><defs><clipPath id="a"><path d="M 121 80 L 4197.230469 80 L 4197.230469 4156.878906 L 121 4156.878906 Z M 121 80"/></clipPath></defs><g><g id="change1_1"><path d="M 4176.5 2118.78125 C 4176.5 3232.949219 3273.300781 4136.160156 2159.128906 4136.160156 C 1044.960938 4136.160156 141.75 3232.949219 141.75 2118.78125 C 141.75 1004.621094 1044.960938 101.394531 2159.128906 101.394531 C 3273.300781 101.394531 4176.5 1004.621094 4176.5 2118.78125" fill="#ffbd59"/></g><g clip-path="url(#a)" id="change1_2"><path d="M 2159.128906 122.109375 C 1058.160156 122.109375 162.453125 1017.8125 162.453125 2118.78125 C 162.453125 3219.75 1058.160156 4115.429688 2159.128906 4115.429688 C 3260.09375 4115.429688 4155.769531 3219.75 4155.769531 2118.78125 C 4155.769531 1017.8125 3260.09375 122.109375 2159.128906 122.109375 Z M 2159.128906 4156.878906 C 1035.320312 4156.878906 121.042969 3242.601562 121.042969 2118.78125 C 121.042969 994.972656 1035.320312 80.703125 2159.128906 80.703125 C 3282.957031 80.703125 4197.226562 994.972656 4197.226562 2118.78125 C 4197.226562 3242.601562 3282.957031 4156.878906 2159.128906 4156.878906" fill="#ffbd59"/></g><g id="change2_1"><path d="M 2038.078125 41.421875 C 937.113281 41.421875 41.410156 937.113281 41.410156 2038.082031 C 41.410156 3139.050781 937.113281 4034.742188 2038.078125 4034.742188 C 3139.050781 4034.742188 4034.746094 3139.050781 4034.746094 2038.082031 C 4034.746094 937.113281 3139.050781 41.421875 2038.078125 41.421875 Z M 2038.078125 4076.191406 C 914.28125 4076.191406 0 3161.902344 0 2038.082031 C 0 914.289062 914.28125 0.00390625 2038.078125 0.00390625 C 3161.902344 0.00390625 4076.1875 914.289062 4076.1875 2038.082031 C 4076.1875 3161.902344 3161.902344 4076.191406 2038.078125 4076.191406" fill="#231815"/></g></g></svg>